<?xml version="1.0" standalone="no"?>
<!DOCTYPE svg PUBLIC "-//W3C//DTD SVG 20010904//EN"
 "http://www.w3.org/TR/2001/REC-SVG-20010904/DTD/svg10.dtd">
<svg version="1.0" xmlns="http://www.w3.org/2000/svg"
 width="920.000000pt" height="920.000000pt" viewBox="0 0 920.000000 920.000000"
 preserveAspectRatio="xMidYMid meet">
<metadata>
Created by potrace 1.14, written by Peter Selinger 2001-2017
</metadata>
<g transform="translate(0.000000,920.000000) scale(0.100000,-0.100000)"
fill="#000000" stroke="none">
<path d="M4455 8828 c-77 -3 -160 -9 -185 -12 -25 -3 -70 -8 -100 -11 -30 -3
-95 -12 -145 -20 -49 -8 -110 -17 -135 -20 -25 -4 -79 -15 -120 -25 -41 -11
-104 -24 -140 -29 -69 -11 -206 -51 -280 -82 -25 -11 -103 -39 -175 -63 -166
-55 -287 -105 -355 -146 -16 -9 -55 -23 -55 -19 0 1 -20 -10 -45 -26 -25 -16
-75 -43 -112 -61 -36 -18 -69 -38 -73 -44 -4 -6 -40 -26 -79 -44 -68 -31 -161
-88 -196 -119 -8 -8 -31 -25 -50 -38 -19 -13 -41 -30 -48 -36 -7 -7 -18 -13
-23 -13 -14 0 -64 -38 -114 -85 -23 -22 -49 -45 -56 -50 -8 -6 -50 -37 -94
-70 -44 -32 -165 -146 -270 -251 -200 -202 -210 -213 -237 -256 -10 -15 -36
-46 -58 -70 -66 -70 -232 -296 -290 -393 -29 -49 -68 -113 -85 -140 -18 -28
-38 -68 -46 -90 -8 -22 -29 -62 -48 -89 -18 -27 -53 -90 -77 -140 -39 -83
-163 -378 -168 -401 -7 -29 -80 -254 -91 -280 -7 -16 -20 -61 -29 -100 -9 -38
-21 -86 -26 -105 -24 -89 -41 -199 -35 -235 10 -68 -23 -261 -50 -295 -44 -53
-57 -113 -60 -255 -2 -118 -2 -121 -38 -183 -20 -34 -37 -66 -38 -70 0 -4 -11
-25 -22 -47 -18 -34 -22 -57 -22 -150 1 -119 9 -145 97 -295 31 -53 32 -58 30
-160 -2 -132 14 -193 64 -242 37 -38 90 -68 118 -68 9 0 18 -12 22 -27 18 -80
88 -295 135 -419 38 -102 161 -359 245 -514 62 -115 233 -376 289 -443 6 -6
33 -41 60 -77 28 -36 57 -72 65 -81 8 -9 32 -36 53 -60 92 -105 138 -155 243
-261 158 -160 228 -221 404 -355 146 -110 202 -150 395 -281 84 -57 415 -226
550 -281 44 -17 89 -36 100 -40 11 -5 23 -9 27 -10 4 -1 23 -8 43 -17 19 -8
37 -14 40 -14 3 0 21 -7 41 -15 20 -8 39 -15 43 -15 4 0 40 -11 81 -24 41 -13
102 -31 135 -41 33 -9 71 -21 85 -26 14 -5 36 -11 50 -14 14 -2 66 -14 115
-26 50 -11 111 -22 137 -25 26 -2 109 -13 184 -24 288 -43 376 -48 694 -46
215 2 312 8 445 25 187 24 395 57 465 72 25 6 52 12 60 14 8 2 44 11 80 20 36
9 74 19 85 22 25 5 36 8 55 15 8 4 49 16 90 28 41 12 118 37 170 57 52 19 109
39 125 45 17 6 48 18 70 28 35 15 69 29 85 35 53 19 338 162 444 224 49 28 90
51 92 51 6 0 225 148 309 209 280 203 478 384 727 661 75 84 208 249 208 259
0 3 10 17 23 31 21 24 133 190 211 314 44 68 106 189 106 204 0 6 3 12 8 14 6
2 81 148 87 168 2 7 23 55 56 127 16 34 29 66 29 71 0 5 8 27 17 48 9 22 17
41 18 44 0 3 12 37 25 75 13 39 25 72 25 75 1 3 4 12 7 20 4 8 16 51 28 95 22
78 24 81 64 98 44 18 96 62 123 104 30 45 37 97 25 191 -9 75 1 144 25 173 6
8 27 46 47 86 l37 72 -4 138 c-4 149 -5 155 -28 193 -73 116 -72 112 -73 275
-2 149 -2 152 -31 199 -55 89 -55 88 -49 161 3 40 1 89 -6 115 -16 65 -27 119
-35 170 -3 25 -10 59 -15 75 -5 17 -19 70 -30 119 -11 49 -28 102 -36 117 -8
16 -12 29 -8 29 4 0 2 6 -3 13 -6 6 -16 36 -23 66 -7 29 -21 76 -32 105 -10
28 -21 58 -23 66 -3 15 -25 70 -47 120 -6 14 -14 34 -18 45 -28 75 -43 112
-51 125 -5 8 -12 24 -16 35 -10 34 -177 355 -228 440 -85 141 -235 359 -265
385 -3 3 -35 44 -71 92 -37 48 -95 119 -130 159 -73 82 -285 292 -344 341 -22
18 -53 46 -70 62 -16 16 -70 59 -120 96 -49 37 -99 77 -109 89 -11 12 -25 21
-31 21 -7 0 -18 6 -24 14 -14 17 -265 184 -381 254 -169 102 -448 232 -665
312 -293 108 -440 145 -850 215 -16 3 -77 10 -135 16 -58 6 -139 14 -180 18
-41 4 -142 9 -225 10 -82 2 -172 3 -200 4 -27 1 -113 -1 -190 -5z"/>
</g>
</svg>
